<?xml version="1.0" encoding="UTF-8"?>
<svg width="80px" height="80px" viewBox="0 0 80 80" version="1.1" xmlns="http://www.w3.org/2000/svg" xmlns:xlink="http://www.w3.org/1999/xlink">
    <!-- Generator: Sketch 52.4 (67378) - http://www.bohemiancoding.com/sketch -->
    <title>Avatar/Fill - Image</title>
    <desc>Created with Sketch.</desc>
    <defs>
        <rect id="path-1" x="0" y="0" width="80" height="80" rx="40"></rect>
        <polygon id="path-3" points="0 0.087015625 24.6092969 0.087015625 24.6092969 28.4373281 0 28.4373281"></polygon>
    </defs>
    <g id="Components" stroke="none" stroke-width="1" fill="none" fill-rule="evenodd">
        <g id="Dashboard" transform="translate(-284.000000, -96.000000)">
            <g id="Left" transform="translate(204.000000, 80.000000)">
                <g id="Details">
                    <g id="Stack" transform="translate(16.000000, 16.000000)">
                        <g id="Avatar/Fill---Default" transform="translate(64.000000, 0.000000)">
                            <mask id="mask-2" fill="white">
                                <use xlink:href="#path-1"></use>
                            </mask>
                            <g id="Mask"></g>
                            <g id="Mixin/Fill/Black" mask="url(#mask-2)" fill="#28283C" fill-rule="evenodd">
                                <rect id="Rectangle" x="0" y="0" width="80" height="80"></rect>
                            </g>
                            <g id="Page-1" stroke-width="1" fill-rule="evenodd" mask="url(#mask-2)">
                                <g transform="translate(16.000000, 20.000000)">
                                    <g id="Group-3" stroke-width="1" fill="none" transform="translate(0.000000, 11.562500)">
                                        <mask id="mask-4" fill="white">
                                            <use xlink:href="#path-3"></use>
                                        </mask>
                                        <g id="Clip-2"></g>
                                    </g>
                                    <path d="M19.2772656,19.3304531 C19.0830469,19.1551406 18.8844531,18.9846719 18.6817969,18.8188906 C18.5019531,18.6715469 18.3192969,18.5273281 18.1333594,18.3876406 C17.9569531,18.2556094 17.7766406,18.1287344 17.5949219,18.0037344 C17.5872656,17.9990469 17.5794531,17.9940469 17.5716406,17.9893594 C17.8753906,18.2198281 18.1216406,18.5206094 18.2871094,18.8684219 C18.4130469,19.1331094 18.4913281,19.4240469 18.5117969,19.7315469 C18.5153906,19.7848281 18.5197656,19.8377969 18.5197656,19.8920156 C18.5197656,19.9838906 18.5135156,20.0742031 18.5033594,20.1635781 C18.4963281,20.2256094 18.4869531,20.2871719 18.4752344,20.3477969 C18.3850781,20.8148281 18.1589844,21.2331094 17.8394531,21.5602969 C17.8125781,21.5879531 17.7841406,21.6137344 17.7561719,21.6399844 C16.6428906,22.7071719 15.1333594,23.3642031 13.4692969,23.3642031 C10.0471094,23.3642031 7.27273438,20.5899844 7.27273438,17.1676406 C7.27273438,17.0884219 7.27570313,17.0098281 7.27882813,16.9313906 C7.79492188,16.2106094 8.46132812,15.6056094 9.23289063,15.1613906 C9.44507813,15.0393594 9.66445313,14.9281094 9.89148438,14.8313906 C9.28054688,14.6052969 8.67554688,14.3667031 8.07835938,14.1135781 C6.57445313,13.4765469 5.11570313,12.7537344 3.70617188,11.9546719 C3.60304688,11.9045156 3.50257813,11.8496719 3.40820313,11.7857656 C3.33085938,11.7410781 3.25476563,11.6946719 3.17757813,11.6495156 C1.97804688,13.2746719 1.07382813,15.1304531 0.542734375,17.1384219 C0.190078125,18.4717031 -7.8125e-05,19.8709219 -7.8125e-05,21.3151406 C-7.8125e-05,24.3109219 0.812265625,27.1157656 2.22289063,29.5276406 C2.53992188,30.0462344 2.87382813,30.5531094 3.22492188,31.0471719 C3.22726563,31.0506094 3.22976563,31.0540469 3.23226563,31.0573281 C3.23445313,31.0604531 3.23679688,31.0637344 3.23898438,31.0668594 C6.02148438,34.9737344 9.84648438,38.0860781 14.3075781,39.9998281 C15.6664844,39.2779531 16.9547656,38.4410781 18.1585156,37.5006094 C20.7383594,35.4852969 22.9311719,32.9982656 24.6092969,30.1698281 C24.5138281,28.9237344 24.2825781,27.7157656 23.9224219,26.5638906 C23.0414844,23.7470156 21.4160156,21.2596719 19.2772656,19.3304531" id="Fill-1" fill="#ED2605"></path>
                                    <path d="M29.9414844,19.3305938 C30.1357031,19.1552813 30.3342969,18.9848125 30.5369531,18.8190313 C30.7167969,18.6716875 30.8994531,18.5274688 31.0853906,18.3877813 C31.2617969,18.25575 31.4421094,18.128875 31.6239844,18.003875 C31.6314844,17.9990313 31.6392969,17.9941875 31.6471094,17.9893438 C31.3433594,18.2199687 31.0971094,18.52075 30.9316406,18.8685625 C30.8057031,19.13325 30.7274219,19.4241875 30.7069531,19.7316875 C30.7033594,19.7849688 30.6989844,19.8379375 30.6989844,19.8921562 C30.6989844,19.9840313 30.7052344,20.0743438 30.7153906,20.1637188 C30.7224219,20.22575 30.7317969,20.2873125 30.7435156,20.3479375 C30.8336719,20.8149688 31.0597656,21.23325 31.3792969,21.5604375 C31.4061719,21.5880938 31.4346094,21.613875 31.4625781,21.6399688 C32.5758594,22.7073125 34.0853906,23.3643438 35.7494531,23.3643438 C39.1716406,23.3643438 41.9460156,20.590125 41.9460156,17.1677813 C41.9460156,17.0885625 41.9430469,17.0099688 41.9399219,16.9315312 C41.4238281,16.21075 40.7574219,15.60575 39.9858594,15.1615312 C39.7736719,15.0395 39.5542969,14.92825 39.3272656,14.8315313 C39.9382031,14.6054375 40.5432031,14.3666875 41.1403906,14.1137188 C42.6442969,13.4766875 44.1030469,12.753875 45.5125781,11.9548125 C45.6157031,11.9046563 45.7161719,11.8498125 45.8105469,11.7859063 C45.8878906,11.7412188 45.9639844,11.6948125 46.0411719,11.6496562 C47.2407031,13.2748125 48.1449219,15.1305938 48.6760156,17.1385625 C49.0286719,18.4718438 49.2188281,19.8710625 49.2188281,21.3152813 C49.2188281,24.3110625 48.4066406,27.1159063 46.9958594,29.5277813 C46.6788281,30.046375 46.3449219,30.55325 45.9938281,31.0473125 C45.9914844,31.05075 45.9889844,31.0541875 45.9864844,31.0574688 C45.9842969,31.0605938 45.9821094,31.063875 45.9797656,31.067 C43.1972656,34.973875 39.3722656,38.0862188 34.9111719,39.9999688 C33.5522656,39.2780937 32.2639844,38.4412188 31.0602344,37.50075 C28.4803906,35.4854375 26.2875781,32.9984063 24.6094531,30.1699688 C24.7049219,28.923875 24.9361719,27.7159063 25.2963281,26.5640313 C26.1772656,23.7471563 27.8027344,21.2598125 29.9414844,19.3305938" id="Fill-4" fill="#BC1C03"></path>
                                    <path d="M24.6094531,30.16975 C24.7049219,28.9236562 24.9378906,27.7185 25.2980469,26.5667812 C26.1789844,23.7499062 27.8042969,21.2625625 29.9432031,19.3333438 C30.1374219,19.1580313 30.3358594,18.9875625 30.5385156,18.8217813 C30.7185156,18.6744375 30.9010156,18.5302187 31.0871094,18.3905312 C31.2635156,18.2585 31.4438281,18.131625 31.6253906,18.006625 C31.6517969,17.9885 31.6769531,17.969125 31.7035156,17.9511563 C31.7463281,17.9205312 31.7902344,17.8917812 31.8350781,17.864125 C32.0946094,17.6913125 32.3603906,17.5274062 32.6302344,17.3692812 C33.1086719,17.0570937 33.5819531,16.7374062 34.0466406,16.406625 C34.9627344,15.75475 35.8500781,15.0656875 36.7102344,14.3452187 C37.5836719,13.6135 38.4272656,12.84725 39.2389844,12.0488125 C40.4207031,10.8863125 41.5344531,9.65553125 42.5749219,8.3625625 C42.6035156,8.32490625 42.6325781,8.287875 42.6633594,8.25209375 C42.6647656,8.25053125 42.6661719,8.24896875 42.6675781,8.24740625 C42.7835156,8.10209375 42.8992969,7.95646875 43.0133594,7.80975 C44.4485156,5.9644375 45.7360156,3.99865625 46.8560156,1.9288125 C47.1972656,1.2981875 47.5224219,0.65740625 47.8322656,0.007875 C47.6233594,0.00303125 47.4136719,6.25e-05 47.2036719,6.25e-05 C46.6538281,6.25e-05 46.1086719,0.01896875 45.5672656,0.05225 C40.8219531,0.3438125 36.4174219,1.89428125 32.6833594,4.37459375 C30.0692969,3.866 27.3707031,3.59490625 24.6094531,3.58834375 C21.8480469,3.59490625 19.1494531,3.866 16.5352344,4.37459375 C12.8013281,1.89428125 8.39679688,0.3438125 3.65132813,0.05225 C3.10992188,0.01896875 2.56476563,6.25e-05 2.01507813,6.25e-05 C1.80492188,6.25e-05 1.59539063,0.00303125 1.38648438,0.007875 C1.69632813,0.65740625 2.02148438,1.2981875 2.36257813,1.9288125 C3.48273438,3.99865625 4.77023438,5.9644375 6.20523438,7.80975 C6.31945313,7.95646875 6.43523438,8.10209375 6.55117188,8.24740625 C6.55257813,8.24896875 6.55398438,8.25053125 6.55539063,8.25209375 C6.58617188,8.287875 6.61523438,8.32490625 6.64398438,8.3625625 C7.68414063,9.65553125 8.79804688,10.8863125 9.97976563,12.0488125 C10.7914844,12.84725 11.6350781,13.6135 12.5085156,14.3452187 C13.3686719,15.0656875 14.2558594,15.75475 15.1719531,16.406625 C15.6367969,16.7374062 16.1100781,17.0570937 16.5883594,17.3692812 C16.8582031,17.5274062 17.1239844,17.6913125 17.3836719,17.864125 C17.4285156,17.8917812 17.4722656,17.9205312 17.5152344,17.9511563 C17.5416406,17.969125 17.5669531,17.9885 17.5932031,18.006625 C17.7749219,18.131625 17.9552344,18.2585 18.1314844,18.3905312 C18.3175781,18.5302187 18.5000781,18.6744375 18.6802344,18.8217813 C18.8828906,18.9875625 19.0811719,19.1580313 19.2755469,19.3333438 C21.4144531,21.2625625 23.0397656,23.7499062 23.9207031,26.5667812 C24.2807031,27.7185 24.5138281,28.9236562 24.6094531,30.16975" id="Fill-6" fill="#D52104"></path>
                                </g>
                            </g>
                        </g>
                    </g>
                </g>
            </g>
        </g>
    </g>
</svg>